<svg xmlns="http://www.w3.org/2000/svg" id="Payment_Icons" data-name="Payment Icons" viewBox="0 0 38 38"><defs><style>.cls-1{fill:#fff}</style></defs><title>amex-fill</title><rect width="38" height="24" y="7" rx="5"/><path d="M18.66,16.5H18l-1.49,3.19L15,16.5H13v4.23L11.08,16.5H9.18L7,21.5H8.49l.45-1.11h2.34l.48,1.11h2.49V17.89l1.67,3.61h1.21l1.53-3.31V21.5H20v-5H18.66ZM9.41,19.25l.67-1.66.71,1.66Z" class="cls-1"/><path d="M31,16.5H29.24L27.82,18,26.43,16.5H20.92v5h5.4l1.48-1.58,1.44,1.58H31L28.69,19ZM25,21v-.65H22.21v-.79H25V18.43H22.21v-.79H25v-.75L26.93,19Z" class="cls-1"/></svg>