<svg xmlns="http://www.w3.org/2000/svg" id="Payment_Icons" data-name="Payment Icons" viewBox="0 0 38 38"><defs><style>.cls-1{fill:#fff}</style></defs><title>cash-dollar-fill</title><rect width="38" height="24" y="7" rx="5"/><path d="M23,21.23a3,3,0,0,0-2.12-2.91l-1.37-.55c-.93-.38-1.63-.61-1.63-1.27s.53-1,1.36-1a3.52,3.52,0,0,1,2.23.84l1.22-1.53A4.94,4.94,0,0,0,20,13.52V12H18v1.62a3.2,3.2,0,0,0-2.57,3,3.12,3.12,0,0,0,2.16,2.92l1.39.59c.94.39,1.55.6,1.55,1.28s-.5,1-1.51,1a4.28,4.28,0,0,1-2.63-1.12L15,23a5.76,5.76,0,0,0,3,1.46V26h2V24.45A3.35,3.35,0,0,0,23,21.23Z" class="cls-1"/></svg>