<svg xmlns="http://www.w3.org/2000/svg" id="Payment_Icons" data-name="Payment Icons" viewBox="0 0 38 38"><defs><style>.cls-1{fill:#26af61}.cls-2{fill:#25a559}.cls-3{fill:#fff}</style></defs><title>cash-color</title><rect width="37" height="23" x=".5" y="7.5" class="cls-1" rx="4.5"/><path d="M33,8a4,4,0,0,1,4,4V26a4,4,0,0,1-4,4H5a4,4,0,0,1-4-4V12A4,4,0,0,1,5,8H33m0-1H5a5,5,0,0,0-5,5V26a5,5,0,0,0,5,5H33a5,5,0,0,0,5-5V12a5,5,0,0,0-5-5Z" class="cls-2"/><circle cx="19" cy="19" r="6" class="cls-3"/></svg>