<svg xmlns="http://www.w3.org/2000/svg" id="Payment_Icons" data-name="Payment Icons" viewBox="0 0 38 38"><defs><style>.cls-1{fill:#fff}.cls-2{fill:#f7f7f7}.cls-3{fill:#253b80}.cls-4{fill:#179bd7}</style></defs><title>paypal-color</title><rect width="37" height="23" x=".5" y="7.5" class="cls-1" rx="4.5"/><path d="M33,8a4,4,0,0,1,4,4V26a4,4,0,0,1-4,4H5a4,4,0,0,1-4-4V12A4,4,0,0,1,5,8H33m0-1H5a5,5,0,0,0-5,5V26a5,5,0,0,0,5,5H33a5,5,0,0,0,5-5V12a5,5,0,0,0-5-5Z" class="cls-2"/><path d="M10.42,16a1.91,1.91,0,0,0-1.51-.53h-2a.3.3,0,0,0-.29.25L5.73,21a.18.18,0,0,0,.18.2h1A.3.3,0,0,0,7.18,21l.22-1.44a.28.28,0,0,1,.28-.25h.65a2.11,2.11,0,0,0,2.35-2A1.56,1.56,0,0,0,10.42,16ZM9.15,17.39c-.11.74-.68.74-1.22.74H7.62l.21-1.39A.18.18,0,0,1,8,16.59h.14c.37,0,.73,0,.9.21A.68.68,0,0,1,9.15,17.39Z" class="cls-3"/><path d="M15.09,17.36h-1a.2.2,0,0,0-.18.14l0,.29-.07-.11a1.42,1.42,0,0,0-1.17-.41,2.28,2.28,0,0,0-2.21,2,1.91,1.91,0,0,0,.37,1.53,1.53,1.53,0,0,0,1.25.5,1.86,1.86,0,0,0,1.36-.57l0,.29a.18.18,0,0,0,.16.19h.89a.28.28,0,0,0,.29-.24l.53-3.41A.16.16,0,0,0,15.09,17.36Zm-2.5,2.89a.85.85,0,0,1-.66-.26.93.93,0,0,1-.16-.71,1.13,1.13,0,0,1,1.11-1,.83.83,0,0,1,.66.28.79.79,0,0,1,.17.7A1.11,1.11,0,0,1,12.59,20.25Z" class="cls-3"/><path d="M20.35,17.36h-1a.28.28,0,0,0-.24.13l-1.37,2-.58-1.95a.3.3,0,0,0-.28-.21h-1a.17.17,0,0,0-.16.23l1.09,3.24-1,1.46a.17.17,0,0,0,.14.27h1a.27.27,0,0,0,.24-.12l3.3-4.81A.17.17,0,0,0,20.35,17.36Z" class="cls-3"/><path d="M25.15,16a1.92,1.92,0,0,0-1.51-.53H21.57a.27.27,0,0,0-.27.25L20.45,21a.18.18,0,0,0,.18.2h1.06a.2.2,0,0,0,.19-.18l.24-1.51a.29.29,0,0,1,.28-.25h.66a2.13,2.13,0,0,0,2.35-2A1.63,1.63,0,0,0,25.15,16Zm-1.28,1.42c-.1.74-.67.74-1.22.74h-.31l.22-1.39a.16.16,0,0,1,.17-.15h.15c.37,0,.72,0,.9.21A.68.68,0,0,1,23.87,17.39Z" class="cls-4"/><path d="M29.81,17.36h-1a.18.18,0,0,0-.18.14l0,.29-.07-.11a1.39,1.39,0,0,0-1.16-.41,2.28,2.28,0,0,0-2.21,2,1.83,1.83,0,0,0,.37,1.53,1.5,1.5,0,0,0,1.24.5,1.89,1.89,0,0,0,1.37-.57l0,.29a.17.17,0,0,0,.17.19h.89a.28.28,0,0,0,.28-.24L30,17.56A.17.17,0,0,0,29.81,17.36Zm-2.49,2.89a.86.86,0,0,1-.67-.26.89.89,0,0,1-.15-.71,1.11,1.11,0,0,1,1.1-1,.79.79,0,0,1,.83,1A1.09,1.09,0,0,1,27.32,20.25Z" class="cls-4"/><path d="M32.1,15.44h-1a.16.16,0,0,0-.17.14L30.13,21a.17.17,0,0,0,.17.2h.85a.28.28,0,0,0,.28-.24l.84-5.33A.17.17,0,0,0,32.1,15.44Z" class="cls-4"/></svg>